<?xml version="1.0" encoding="UTF-8" standalone="no"?>
<!-- Generator: Adobe Illustrator 19.0.0, SVG Export Plug-In . SVG Version: 6.00 Build 0)  -->

<svg version="1.1" id="Layer_1" x="0px" y="0px" viewBox="0 0 512 512" style="enable-background:new 0 0 512 512;"
	xml:space="preserve" xmlns="http://www.w3.org/2000/svg"><defs
   id="defs17" />
<g
   id="g6"
   transform="matrix(0,1,1,0,0,3.6e-4)"
   style="stroke-width:151.181;stroke-dasharray:none">
	<g
   id="g4"
   style="stroke-width:151.181;stroke-dasharray:none">
		<path
   d="M 256,0 C 114.51,0 0,114.497 0,256 0,397.49 114.495,512 256,512 397.491,512 512,397.503 512,256 512,114.509 397.503,0 256,0 Z m 0,478.609 C 133.254,478.609 33.391,378.747 33.391,256 33.391,133.253 133.252,33.391 256,33.391 c 122.748,0 222.609,99.863 222.609,222.609 0,122.746 -99.863,222.609 -222.609,222.609 z"
   id="path2"
   style="stroke-width:151.181;stroke-dasharray:none" />
	</g>
</g>
<g
   id="g12"
   transform="matrix(0,1.5963993,1.5590387,0,-140.76328,-156.42198)">
	<g
   id="g10">
		<path
   d="m 358.185,241.544 -155.778,-90.01 c -11.128,-6.426 -25.048,1.63 -25.048,14.456 v 180.02 c 0,12.922 14.01,20.833 25.048,14.456 l 155.778,-90.01 c 11.116,-6.424 11.102,-22.496 0,-28.912 z M 210.75,317.081 V 194.919 L 316.461,256 Z"
   id="path8" />
	</g>
</g>
</svg>
